<?xml version="1.0" encoding="UTF-8"?>
<svg id="Layer_1" data-name="Layer 1" xmlns="http://www.w3.org/2000/svg" viewBox="0 0 729.86 236.84">
  <defs>
    <style>
      .cls-1 {
        fill: #bf0a30;
      }

      .cls-2 {
        fill: gold;
      }

      .cls-3 {
        fill: #002644;
      }
    </style>
  </defs>
  <path class="cls-3" d="M213.61,103.06c.64-1.27,1.71-3.1,3.41-5,1.43-1.6,2.18-2.41,2.97-2.27,1.6.27,1.3,3.98,3.37,7.3,1.74,2.8,4.59,4.39,7.38,5.33,3.55,4.99,7.11,9.98,10.66,14.97-3.1-2.86-6.47-5.79-10.14-8.75-4.19-3.38-8.29-6.41-12.2-9.1-.54.62.11,1.36.33,1.85,1.06,2.36,2.54,4.18,3.48,6.76-5.67-.84-11.1-5.07-15.72-11.08l.67,4.92c-2.76-.73-8.09-17.56-9.92-16.63l-.5,1.5,1.48,7.74c-1.77-3.39-3.83-6.47-4.89-10.92-3.49-3.06-7.09-11.71-6.16,2.54.26,4,1.54,6.07,2.28,9.62-2.04-1.8-3.63-4.27-5.13-7.39-.39,1.17.26,3.26.55,4.53,1.89,8.23,5.41,14.79,8.89,20.72-4.21-2.5-8.31-5.81-11.74-11.1-.8-1.23-3.13-6.36-3.72-6.67-.83-.43-2.34.91-2.39,2.65-.08,2.77,1.95,4.58,1.8,7.11-3.28-1.83-5.43-7.39-8-10.37-4.7-5.45-6.63,8.47-9.58,11.52-1.47,1.51-2.99.89-4.43,1.6-1.18.58-3.36,3.56-4.73,4.75-1.65,1.43-3.42,2.74-5.19,3.58,4.98-7.21,9.95-14.67,15.12-21.44,1.34-1.76,5.64-7.88,6.92-8.11,3.02-.55,4.3,9.68,7.09,3.39.53-1.2.69-2.87,1.17-3.97,2.08-4.77,10.04-15.61,13.26-16.03,2.12-.28,3.49,5.48,5.62,7.31,1.7,1.46,4.1,1.16,5.55,2.61,1.12,1.11,1.26,3.4,2.01,4.88,1.95,3.84,4.68,2.25,6.46,3.99.99.96,1.87,7.75,3.98,7.68Z"/>
  <path class="cls-3" d="M1.58,3.32h36.71v127.76h66.78v34.01H1.58V3.32Z"/>
  <path class="cls-3" d="M108.79,84.41C108.79,34.22,145.71,0,190.93,0s82.13,34.64,82.13,84.41-36.3,84.2-82.13,84.2-82.13-34.01-82.13-84.2ZM191.13,133.98c25.3,0,43.35-21.16,43.35-49.57s-17.42-49.78-43.35-49.78-43.76,20.95-43.76,49.78,19.08,49.57,43.76,49.57Z"/>
  <circle class="cls-2" cx="367.53" cy="84.31" r="45.29"/>
  <path class="cls-3" d="M508.37,3.32h43.35l59.94,161.77h-39.2l-13.69-36.92h-58.69c-4.56,12.24-8.92,24.68-13.48,36.92h-38.16L508.37,3.32ZM545.7,92.29c-2.9-8.09-7.47-20.95-15.97-44.38h-.42l-16.18,44.38h32.56Z"/>
  <path class="cls-3" d="M626.37,3.32h36.71v127.76h66.78v34.01h-103.49V3.32Z"/>
  <path class="cls-1" d="M448.5,53.09l-38.74,14.79c-9.43-21.29-33.39-31.23-55.27-22.54-12.91,5.13-24.16,19.51-25.39,33.49-4.34,49.57,60.36,65.47,80.66,21.63l38.74,14.79c-11.2,33.4-47.35,55-82.2,53.18-74.85-3.91-107.81-98.09-51.08-147.65,43.5-38,113.33-21.66,133.28,32.31Z"/>
  <g>
    <path class="cls-3" d="M0,181.16h15.44c5.03,11.6,9.99,23.2,15.02,34.79h.14c5.03-11.6,9.99-23.2,15.02-34.79h15.44v54.5h-12.57v-31.51h-.21l-13.41,31.51h-8.66l-13.41-31.51h-.21v31.51H0v-54.5Z"/>
    <path class="cls-3" d="M68.62,208.48c0-16.91,12.43-28.43,27.66-28.43s27.67,11.67,27.67,28.43-12.23,28.37-27.67,28.37-27.66-11.46-27.66-28.37ZM96.36,225.18c8.52,0,14.6-7.13,14.6-16.7s-5.87-16.77-14.6-16.77-14.74,7.06-14.74,16.77,6.43,16.7,14.74,16.7Z"/>
    <path class="cls-3" d="M124.11,181.16h13c1.47,3.98,11.32,30.04,14.46,39.27h.14c3.42-9.22,12.79-35.28,14.32-39.27h13l-20.05,54.5h-14.74l-20.12-54.5Z"/>
    <path class="cls-3" d="M183.99,181.16h12.37v54.5h-12.37v-54.5Z"/>
    <path class="cls-3" d="M206.7,181.16h12.79c7.06,10.69,14.04,21.03,21.1,32.42h.14v-32.42h12.37v54.5h-12.79c-6.99-10.55-14.04-20.54-21.03-31.65h-.21v31.65h-12.37v-54.5Z"/>
    <path class="cls-3" d="M260.72,208.41c0-18.16,13.14-28.37,27.88-28.37,12.79,0,21.87,7.68,25.43,17.54l-11.53,4.61c-2.52-5.73-6.57-10.48-13.9-10.48-8.52,0-14.95,6.43-14.95,17.05,0,13,9.71,16.42,16.07,16.42s11.32-2.86,12.86-8.31h-12.72v-10.06h25.08v28.85h-9.36l-.7-6.78h-.35c-3.98,5.24-9.5,7.96-17.12,7.96-15.58,0-26.69-11.81-26.69-28.43Z"/>
    <path class="cls-3" d="M337.31,208.13c0-18.59,13.83-28.09,27.95-28.09,12.3,0,21.52,7.27,25.36,17.54l-11.53,4.61c-2.44-5.73-6.71-10.48-14.04-10.48-8.73,0-14.81,6.71-14.81,17.05,0,12.37,8.66,16.42,15.58,16.42,6.43,0,12.23-3.56,15.02-11.95l11.53,3.91c-4.75,14.46-15.37,19.7-26.55,19.7-16.42,0-28.5-11.32-28.5-28.71Z"/>
    <path class="cls-3" d="M395.1,208.48c0-16.91,12.43-28.43,27.66-28.43s27.67,11.67,27.67,28.43-12.23,28.37-27.67,28.37-27.66-11.46-27.66-28.37ZM422.84,225.18c8.52,0,14.6-7.13,14.6-16.7s-5.87-16.77-14.6-16.77-14.74,7.06-14.74,16.77,6.43,16.7,14.74,16.7Z"/>
    <path class="cls-3" d="M457.99,181.16h15.44c5.03,11.6,9.99,23.2,15.02,34.79h.14c5.03-11.6,9.99-23.2,15.02-34.79h15.44v54.5h-12.57v-31.51h-.21l-13.41,31.51h-8.66l-13.41-31.51h-.21v31.51h-12.58v-54.5Z"/>
    <path class="cls-3" d="M529.41,181.16h21.73c2.37,0,19.28,0,19.28,17.75s-17.05,18.45-19.35,18.45h-9.29v18.3h-12.37v-54.5ZM548.69,205.26c2.45,0,8.74,0,8.74-6.43s-6.01-6.22-8.38-6.22h-7.27v12.65h6.92Z"/>
    <path class="cls-3" d="M587.75,181.16h14.6l20.19,54.5h-13.21l-4.61-12.43h-19.77c-1.54,4.12-3.01,8.31-4.54,12.43h-12.86l20.19-54.5ZM600.33,211.13c-.98-2.72-2.52-7.06-5.38-14.95h-.14l-5.45,14.95h10.97Z"/>
    <path class="cls-3" d="M627.52,181.16h12.79c7.06,10.69,14.04,21.03,21.1,32.42h.14v-32.42h12.37v54.5h-12.79c-6.99-10.55-14.04-20.54-21.03-31.65h-.21v31.65h-12.37v-54.5Z"/>
    <path class="cls-3" d="M697.6,217.42c-6.22-12.08-12.43-24.17-18.65-36.26h13.27c3.84,7.97,7.61,15.93,11.46,23.89h.14c3.84-7.96,7.61-15.93,11.46-23.89h13.27c-6.22,12.02-12.37,24.1-18.58,36.12v18.37h-12.37v-18.24Z"/>
  </g>
</svg>