<svg xmlns="http://www.w3.org/2000/svg" version="1.1" xmlns:xlink="http://www.w3.org/1999/xlink" width="458.69" height="477.18"><svg id="SvgjsSvg1001" data-name="Layer 1" xmlns="http://www.w3.org/2000/svg" viewBox="0 0 458.69 477.18">
  <defs>
    <style>
      .cls-1 {
        fill: #bf0a30;
      }

      .cls-2 {
        fill: gold;
      }
    </style>
  </defs>
  <polygon class="cls-2" points="128.21 306.03 170.61 251 188.54 265.67 206.07 251 225.23 206.59 240.31 211.46 268.44 241.21 285.56 256.31 301.05 278.31 318.98 268.12 331.21 279.53 360.19 300.12 341.81 355.76 235.42 365.95 161.64 378.58 128.21 306.03"></polygon>
  <path class="cls-1" d="M458.69,150.17l-109.74,41.9c-26.72-60.3-94.59-88.47-156.55-63.85-36.58,14.54-68.44,55.25-71.91,94.85-12.3,140.41,170.97,185.45,228.45,61.28l109.74,41.9c-31.73,94.62-134.13,155.8-232.84,150.63C13.85,465.79-79.53,199.05,81.17,58.67,204.4-48.98,402.18-2.7,458.69,150.17Z"></path>
  <path class="cls-1" d="M300.43,269.17c1.82-3.61,4.83-8.78,9.66-14.16,4.06-4.53,6.16-6.81,8.41-6.44,4.52.76,3.68,11.26,9.55,20.67,4.94,7.92,13,12.42,20.89,15.11,10.07,14.13,20.14,28.27,30.21,42.4-8.77-8.1-18.33-16.41-28.72-24.79-11.88-9.59-23.47-18.15-34.55-25.78-1.52,1.74.31,3.86.93,5.24,3.01,6.69,7.19,11.84,9.85,19.16-16.06-2.37-31.43-14.35-44.53-31.38l1.89,13.94c-7.83-2.07-22.91-49.74-28.09-47.09l-1.42,4.23,4.2,21.92c-5.02-9.61-10.86-18.34-13.84-30.94-9.88-8.67-20.08-33.17-17.46,7.2.74,11.34,4.38,17.19,6.45,27.24-5.79-5.11-10.28-12.09-14.52-20.93-1.12,3.3.72,9.25,1.55,12.82,5.37,23.3,15.31,41.9,25.17,58.69-11.93-7.08-23.54-16.47-33.24-31.44-2.26-3.49-8.87-18.03-10.55-18.89-2.36-1.21-6.63,2.57-6.77,7.5-.23,7.85,5.52,12.96,5.11,20.15-9.28-5.18-15.38-20.92-22.66-29.36-13.31-15.45-18.78,23.99-27.15,32.63-4.15,4.28-8.47,2.53-12.56,4.54-3.34,1.64-9.52,10.09-13.39,13.45-4.66,4.04-9.69,7.77-14.69,10.14,14.11-20.43,28.19-41.56,42.82-60.73,3.8-4.99,15.97-22.32,19.6-22.98,8.55-1.57,12.18,27.41,20.07,9.6,1.5-3.39,1.96-8.12,3.33-11.26,5.88-13.51,28.44-44.23,37.54-45.42,6.01-.79,9.9,15.52,15.92,20.69,4.82,4.13,11.6,3.3,15.71,7.39,3.17,3.15,3.56,9.63,5.69,13.83,5.53,10.87,13.25,6.39,18.3,11.3,2.79,2.71,5.31,21.96,11.27,21.75Z"></path>
</svg><style>@media (prefers-color-scheme: light) { :root { filter: none; } }
@media (prefers-color-scheme: dark) { :root { filter: none; } }
</style></svg>